<svg width="60" height="60" viewBox="140 75 120 110" fill="none" xmlns="http://www.w3.org/2000/svg">
  <g clip-path="url(#clip0)">
    <path fill-rule="evenodd" clip-rule="evenodd"
      d="M226.277 91.7107C225.623 91.7439 224.965 91.7607 224.303 91.7607C214.486 91.7607 205.53 88.0698 198.749 82C191.967 88.0696 183.012 91.7603 173.194 91.7603C172.532 91.7603 171.874 91.7435 171.221 91.7103C170.424 94.7884 170 98.0166 170 101.344C170 119.205 182.216 134.213 198.749 138.468C215.282 134.213 227.498 119.205 227.498 101.344C227.498 98.0167 227.074 94.7887 226.277 91.7107ZM198.749 130.988C211.264 126.947 220.311 115.194 220.311 101.344C220.311 100.475 220.275 99.6148 220.206 98.7656C212.3 98.0592 204.971 95.3293 198.749 91.1019C192.526 95.3291 185.197 98.0588 177.292 98.7652C177.223 99.6146 177.187 100.474 177.187 101.344C177.187 115.194 186.233 126.947 198.749 130.988Z"
      fill="#9131EA" />
  </g> 
</svg>